<svg width="900" height="220" viewBox="0 0 900 220" xmlns="http://www.w3.org/2000/svg">
<defs>
<linearGradient id="tileGrad" x1="0" y1="0" x2="1" y2="1">
<stop offset="0" stop-color="#FDE68A"/>
<stop offset="0.5" stop-color="#F59E0B"/>
<stop offset="1" stop-color="#B45309"/>
</linearGradient>
<linearGradient id="coinGrad" x1="0" y1="0" x2="0" y2="1">
<stop offset="0" stop-color="#FFFDF7"/>
<stop offset="1" stop-color="#FDE9C8"/>
</linearGradient>
<linearGradient id="swooshGrad" x1="0" y1="0" x2="1" y2="1">
<stop offset="0" stop-color="#B45309"/>
<stop offset="1" stop-color="#F59E0B"/>
</linearGradient>
</defs>
<rect x="10" y="10" width="200" height="200" rx="45" fill="url(#tileGrad)" stroke="#92400E" stroke-width="1.5" stroke-opacity="0.3"/>
<g transform="translate(110,110)">
<circle cx="4" cy="6" r="58" fill="#92400E" opacity="0.35"/>
<circle cx="0" cy="0" r="58" fill="url(#coinGrad)" stroke="#FDE68A" stroke-width="1.5"/>
<g stroke="#B45309" stroke-width="1.7" stroke-linecap="round" opacity="0.5">
<line x1="0" y1="-60" x2="0" y2="-66"/>
<line x1="0" y1="-60" x2="0" y2="-66" transform="rotate(30)"/>
<line x1="0" y1="-60" x2="0" y2="-66" transform="rotate(60)"/>
<line x1="0" y1="-60" x2="0" y2="-66" transform="rotate(90)"/>
<line x1="0" y1="-60" x2="0" y2="-66" transform="rotate(120)"/>
<line x1="0" y1="-60" x2="0" y2="-66" transform="rotate(150)"/>
<line x1="0" y1="-60" x2="0" y2="-66" transform="rotate(180)"/>
<line x1="0" y1="-60" x2="0" y2="-66" transform="rotate(210)"/>
<line x1="0" y1="-60" x2="0" y2="-66" transform="rotate(240)"/>
<line x1="0" y1="-60" x2="0" y2="-66" transform="rotate(270)"/>
<line x1="0" y1="-60" x2="0" y2="-66" transform="rotate(300)"/>
<line x1="0" y1="-60" x2="0" y2="-66" transform="rotate(330)"/>
</g>
<path d="M20,-17 C20,-27 3,-30 -10,-25 C-22,-20 -20,-4 0,0 C22,4 22,20 10,25 C-3,30 -20,27 -20,15" fill="none" stroke="url(#swooshGrad)" stroke-width="13" stroke-linecap="round"/>
<path d="M20,-17 C20,-27 3,-30 -10,-25 C-22,-20 -20,-4 0,0 C22,4 22,20 10,25 C-3,30 -20,27 -20,15" fill="none" stroke="#FEF3C7" stroke-width="4.5" stroke-linecap="round" opacity="0.5" transform="translate(-1,-2)"/>
<circle cx="20" cy="-17" r="3.5" fill="#FEF3C7"/>
</g>
<text x="235" y="128" font-family="Arial, Helvetica, sans-serif" font-size="72" font-weight="700" fill="#F8FAFC">Spendexa</text>
</svg>
