<svg width="512" height="512" viewBox="0 0 512 512" xmlns="http://www.w3.org/2000/svg">
<defs>
<linearGradient id="coinGrad" x1="0" y1="0" x2="0" y2="1">
<stop offset="0" stop-color="#FFFDF7"/>
<stop offset="1" stop-color="#FDE9C8"/>
</linearGradient>
<linearGradient id="swooshGrad" x1="0" y1="0" x2="1" y2="1">
<stop offset="0" stop-color="#B45309"/>
<stop offset="1" stop-color="#F59E0B"/>
</linearGradient>
</defs>
<g transform="translate(256,256)">
<circle cx="10" cy="15" r="170" fill="#92400E" opacity="0.35"/>
<circle cx="0" cy="0" r="170" fill="url(#coinGrad)" stroke="#FDE68A" stroke-width="4"/>
<g stroke="#B45309" stroke-width="5" stroke-linecap="round" opacity="0.5">
<line x1="0" y1="-175" x2="0" y2="-192"/>
<line x1="0" y1="-175" x2="0" y2="-192" transform="rotate(30)"/>
<line x1="0" y1="-175" x2="0" y2="-192" transform="rotate(60)"/>
<line x1="0" y1="-175" x2="0" y2="-192" transform="rotate(90)"/>
<line x1="0" y1="-175" x2="0" y2="-192" transform="rotate(120)"/>
<line x1="0" y1="-175" x2="0" y2="-192" transform="rotate(150)"/>
<line x1="0" y1="-175" x2="0" y2="-192" transform="rotate(180)"/>
<line x1="0" y1="-175" x2="0" y2="-192" transform="rotate(210)"/>
<line x1="0" y1="-175" x2="0" y2="-192" transform="rotate(240)"/>
<line x1="0" y1="-175" x2="0" y2="-192" transform="rotate(270)"/>
<line x1="0" y1="-175" x2="0" y2="-192" transform="rotate(300)"/>
<line x1="0" y1="-175" x2="0" y2="-192" transform="rotate(330)"/>
</g>
<path d="M58,-50 C58,-80 8,-88 -28,-73 C-65,-58 -60,-13 0,0 C65,13 65,58 28,73 C-8,88 -60,80 -60,45" fill="none" stroke="url(#swooshGrad)" stroke-width="37" stroke-linecap="round"/>
<path d="M58,-50 C58,-80 8,-88 -28,-73 C-65,-58 -60,-13 0,0 C65,13 65,58 28,73 C-8,88 -60,80 -60,45" fill="none" stroke="#FEF3C7" stroke-width="12" stroke-linecap="round" opacity="0.5" transform="translate(-2,-5)"/>
<circle cx="58" cy="-50" r="10" fill="#FEF3C7"/>
</g>
</svg>
