<svg width="512" height="512" viewBox="0 0 512 512" xmlns="http://www.w3.org/2000/svg">
<defs>
<linearGradient id="tileGrad" x1="0" y1="0" x2="1" y2="1">
<stop offset="0" stop-color="#FDE68A"/>
<stop offset="0.5" stop-color="#F59E0B"/>
<stop offset="1" stop-color="#B45309"/>
</linearGradient>
<linearGradient id="coinGrad" x1="0" y1="0" x2="0" y2="1">
<stop offset="0" stop-color="#FFFDF7"/>
<stop offset="1" stop-color="#FDE9C8"/>
</linearGradient>
<linearGradient id="swooshGrad" x1="0" y1="0" x2="1" y2="1">
<stop offset="0" stop-color="#B45309"/>
<stop offset="1" stop-color="#F59E0B"/>
</linearGradient>
</defs>
<rect x="0" y="0" width="512" height="512" rx="115" fill="url(#tileGrad)" stroke="#92400E" stroke-width="2" stroke-opacity="0.3"/>
<g transform="translate(256,256)">
<circle cx="10" cy="15" r="150" fill="#92400E" opacity="0.35"/>
<circle cx="0" cy="0" r="150" fill="url(#coinGrad)" stroke="#FDE68A" stroke-width="4"/>
<g stroke="#B45309" stroke-width="4" stroke-linecap="round" opacity="0.5">
<line x1="0" y1="-154" x2="0" y2="-169"/>
<line x1="0" y1="-154" x2="0" y2="-169" transform="rotate(30)"/>
<line x1="0" y1="-154" x2="0" y2="-169" transform="rotate(60)"/>
<line x1="0" y1="-154" x2="0" y2="-169" transform="rotate(90)"/>
<line x1="0" y1="-154" x2="0" y2="-169" transform="rotate(120)"/>
<line x1="0" y1="-154" x2="0" y2="-169" transform="rotate(150)"/>
<line x1="0" y1="-154" x2="0" y2="-169" transform="rotate(180)"/>
<line x1="0" y1="-154" x2="0" y2="-169" transform="rotate(210)"/>
<line x1="0" y1="-154" x2="0" y2="-169" transform="rotate(240)"/>
<line x1="0" y1="-154" x2="0" y2="-169" transform="rotate(270)"/>
<line x1="0" y1="-154" x2="0" y2="-169" transform="rotate(300)"/>
<line x1="0" y1="-154" x2="0" y2="-169" transform="rotate(330)"/>
</g>
<path d="M51,-44 C51,-71 7,-78 -25,-64 C-57,-51 -53,-11 0,0 C57,11 57,51 25,64 C-7,78 -53,71 -53,40" fill="none" stroke="url(#swooshGrad)" stroke-width="33" stroke-linecap="round"/>
<path d="M51,-44 C51,-71 7,-78 -25,-64 C-57,-51 -53,-11 0,0 C57,11 57,51 25,64 C-7,78 -53,71 -53,40" fill="none" stroke="#FEF3C7" stroke-width="11" stroke-linecap="round" opacity="0.5" transform="translate(-2,-4)"/>
<circle cx="51" cy="-44" r="9" fill="#FEF3C7"/>
</g>
</svg>
